<svg width="120px" height="70px" xmlns="http://www.w3.org/2000/svg" viewBox="71.68251342773439 14.600000000000001 356.6349731445312 120.8" style="background: rgba(0, 0, 0, 0);" preserveAspectRatio="xMidYMid"><defs><linearGradient id="editing-gradient-gradient" x1="0" x2="1" y1="0.5" y2="0.5" gradientUnits="objectBoundingBox"><stop offset="0" stop-color="#f0f"></stop><stop offset="1" stop-color="#0ff"></stop></linearGradient></defs><g><g transform="translate(127.14596891403198, 97.39999961853027)"><path d="M27.01-20.61L39.94-21.76L39.94-21.76Q35.33-11.65 35.33 0.06L35.33 0.06L35.33 0.06Q33.60 1.28 31.07 1.28L31.07 1.28L31.07 1.28Q28.54 1.28 26.94 0.10L26.94 0.10L26.94 0.10Q25.34-1.09 25.02-2.30L25.02-2.30L25.02-2.30Q23.42-0.64 20.83 0.32L20.83 0.32L20.83 0.32Q18.24 1.28 15.49 1.28L15.49 1.28L15.49 1.28Q12.74 1.28 10.34 0.38L10.34 0.38L10.34 0.38Q7.94-0.51 6.08-2.50L6.08-2.50L6.08-2.50Q1.98-6.85 1.98-15.10L1.98-15.10L1.98-15.10Q1.98-27.90 8.83-35.58L8.83-35.58L8.83-35.58Q15.87-43.52 28.35-43.52L28.35-43.52L28.35-43.52Q36.99-43.52 40.06-39.04L40.06-39.04L40.06-39.04Q41.02-37.63 41.02-35.94L41.02-35.94L41.02-35.94Q41.02-34.24 40.29-32.80L40.29-32.80L40.29-32.80Q39.55-31.36 38.40-30.21L38.40-30.21L38.40-30.21Q35.65-27.65 32.26-27.65L32.26-27.65L32.26-27.65Q30.91-27.65 29.63-28.10L29.63-28.10L29.63-28.10Q29.89-30.02 29.89-32.26L29.89-32.26L29.89-32.26Q29.89-34.50 29.73-35.52L29.73-35.52L29.73-35.52Q29.57-36.54 29.18-37.38L29.18-37.38L29.18-37.38Q28.35-39.10 26.53-39.10L26.53-39.10L26.53-39.10Q24.70-39.10 22.69-37.15L22.69-37.15L22.69-37.15Q20.67-35.20 19.07-32L19.07-32L19.07-32Q15.55-24.83 15.55-16.19L15.55-16.19L15.55-16.19Q15.55-12.22 17.09-9.41L17.09-9.41L17.09-9.41Q18.75-6.34 21.70-6.34L21.70-6.34L21.70-6.34Q22.72-6.34 23.65-6.85L23.65-6.85L23.65-6.85Q24.58-7.36 24.96-7.74L24.96-7.74L27.01-20.61ZM71.17 1.28L71.17 1.28L71.17 1.28Q62.98 1.28 62.21-10.37L62.21-10.37L51.20-10.37L51.20-10.37Q49.92-7.42 49.02-4.86L49.02-4.86L47.36 0L38.40 0L58.56-42.24L72.32-42.24L75.01-11.14L75.01-11.14Q75.65-4.42 78.21-2.43L78.21-2.43L78.21-2.43Q76.35 1.28 71.17 1.28ZM56.70-23.17L53.18-15.04L62.02-15.04L61.25-31.49L61.25-33.22L56.70-23.17ZM82.56-9.47L82.56-9.47L82.56-9.47Q82.56-11.97 83.20-15.17L83.20-15.17L88.38-42.24L102.53-42.24L97.41-14.98L97.41-14.98Q96.83-11.97 96.83-9.76L96.83-9.76L96.83-9.76Q96.83-7.55 97.76-6.40L97.76-6.40L97.76-6.40Q98.69-5.25 100.42-5.25L100.42-5.25L100.42-5.25Q102.14-5.25 103.23-5.70L103.23-5.70L103.23-5.70Q104.32-6.14 105.22-7.23L105.22-7.23L105.22-7.23Q106.94-9.41 108.03-14.98L108.03-14.98L113.22-42.24L122.88-42.24L117.76-15.04L117.76-15.04Q115.97-5.95 111.04-2.30L111.04-2.30L111.04-2.30Q106.24 1.28 96.77 1.28L96.77 1.28L96.77 1.28Q89.66 1.28 85.89-1.79L85.89-1.79L85.89-1.79Q82.56-4.48 82.56-9.47ZM137.28 0L123.58 0L131.39-42.05L131.39-42.05Q137.73-42.75 146.98-42.75L146.98-42.75L146.98-42.75Q156.22-42.75 160.51-40.06L160.51-40.06L160.51-40.06Q164.80-37.38 164.80-31.97L164.80-31.97L164.80-31.97Q164.80-26.56 162.02-23.17L162.02-23.17L162.02-23.17Q159.23-19.78 154.43-18.69L154.43-18.69L154.43-18.69Q155.52-13.38 158.02-9.09L158.02-9.09L158.02-9.09Q160.32-5.06 163.01-3.78L163.01-3.78L163.01-3.78Q162.05-1.09 160.10 0.10L160.10 0.10L160.10 0.10Q158.14 1.28 155.36 1.28L155.36 1.28L155.36 1.28Q152.58 1.28 150.40-0.35L150.40-0.35L150.40-0.35Q148.22-1.98 146.50-4.99L146.50-4.99L146.50-4.99Q142.85-11.52 142.46-21.82L142.46-21.82L142.91-21.82L142.91-21.82Q147.65-21.95 150.02-24.42L150.02-24.42L150.02-24.42Q152.38-26.88 152.38-32.06L152.38-32.06L152.38-32.06Q152.38-38.53 146.94-38.78L146.94-38.78L145.54-38.78L145.54-38.78Q144.96-38.78 144.64-38.72L144.64-38.72L137.28 0ZM195.84 1.28L195.84 1.28L195.84 1.28Q187.65 1.28 186.88-10.37L186.88-10.37L175.87-10.37L175.87-10.37Q174.59-7.42 173.70-4.86L173.70-4.86L172.03 0L163.07 0L183.23-42.24L196.99-42.24L199.68-11.14L199.68-11.14Q200.32-4.42 202.88-2.43L202.88-2.43L202.88-2.43Q201.02 1.28 195.84 1.28ZM181.38-23.17L177.86-15.04L186.69-15.04L185.92-31.49L185.92-33.22L181.38-23.17ZM208.19-39.68L208.19-39.68L208.19-39.68Q210.05-43.52 215.20-43.52L215.20-43.52L215.20-43.52Q220.35-43.52 222.75-40.54L222.75-40.54L222.75-40.54Q225.15-37.57 225.15-30.72L225.15-30.72L225.15-7.87L240.70-42.18L248.32-42.18L228.42 0L213.44 0L211.52-30.72L211.52-30.72Q211.33-34.11 210.40-36.42L210.40-36.42L210.40-36.42Q209.47-38.72 208.19-39.68Z" fill="url(#editing-gradient-gradient)"></path></g></g><style>text {
  font-size: 64px;
  font-family: Arial Black;
  dominant-baseline: central;
  text-anchor: middle;
}</style></svg>