<svg width="32" height="33" xmlns="http://www.w3.org/2000/svg" viewBox="0 0 32 32" id="Phone"><path fill="#ea4335" d="M26.27,23.76l-2.82-2.83a3,3,0,0,0-4.25,0l-1.45,1.45a26.14,26.14,0,0,1-4.51-3.62,26.62,26.62,0,0,1-3.62-4.51l1.45-1.45a3,3,0,0,0,0-4.25L8.24,5.73a2.93,2.93,0,0,0-2.11-.88h0A3,3,0,0,0,4,5.73L2.64,7.08A6.37,6.37,0,0,0,1,12.33c.32,3.75,2.78,8.26,6.57,12.06S15.92,30.64,19.67,31a7.87,7.87,0,0,0,.84,0,6.07,6.07,0,0,0,4.41-1.64L26.27,28a3,3,0,0,0,.88-2.13A2.93,2.93,0,0,0,26.27,23.76Z" class="colorb5e3ff svgShape"></path><path fill="#fbbc05" d="M26.27,26.08l-1.35,1.35a6,6,0,0,1-4.41,1.65c-.28,0-.56,0-.84,0-3.75-.32-8.26-2.78-12.06-6.58S1.43,14.28,1.06,10.55a8.77,8.77,0,0,0,0,1.78c.32,3.75,2.78,8.26,6.57,12.06S15.92,30.64,19.67,31a7.87,7.87,0,0,0,.84,0,6.07,6.07,0,0,0,4.41-1.64L26.27,28a3,3,0,0,0,.88-2.13,2.75,2.75,0,0,0-.17-.95A2.92,2.92,0,0,1,26.27,26.08Z" class="color9ed4ef svgShape"></path><path fill="#34a853" d="M30,17.11h0a1,1,0,0,1-1-1A13,13,0,0,0,16,3a1,1,0,1,1,0-2A15,15,0,0,1,31,16.12,1,1,0,0,1,30,17.11Z" class="colorc9c1f5 svgShape"></path><path fill="#34a853" d="M23.68,16.43h0a1,1,0,0,1-1-1,6,6,0,0,0-6.05-6.08,1,1,0,1,1,0-2,8,8,0,0,1,8.05,8.1A1,1,0,0,1,23.68,16.43Z" class="colorc9c1f5 svgShape"></path><path fill="#4285f4" d="M31,16.12a1,1,0,0,1-1,1A15,15,0,0,0,15,2a1,1,0,0,1,1-1A15,15,0,0,1,31,16.12Z" class="colorb0aae8 svgShape"></path><path fill="#4285f4" d="M24.68,15.44a1,1,0,0,1-1,1,8,8,0,0,0-8-8.09,1,1,0,0,1,1-1,8,8,0,0,1,8.05,8.1Z" class="colorb0aae8 svgShape"></path></svg>