<svg width="27" height="37" xmlns="http://www.w3.org/2000/svg" viewBox="0 0 32 32" id="UserLocation"><path fill="#ff9f97" d="M16,1A11,11,0,0,0,5,12c0,5.81,9.8,18.1,10.22,18.63a1,1,0,0,0,1.56,0C17.2,30.1,27,17.81,27,12A11,11,0,0,0,16,1Z" class="colorff9797 svgShape"></path><path fill="#ea4335" d="M27,12c0,5.81-9.8,18.1-10.22,18.62A1,1,0,0,1,16,31V1A11,11,0,0,1,27,12Z" class="colore47979 svgShape"></path><circle cx="16" cy="12" r="7" fill="#eef4fd" class="coloreef5fd svgShape"></circle><path fill="#4285f4" d="M23,12a6.94,6.94,0,0,1-1.68,4.54l0,0a.57.57,0,0,1-.11.11,3,3,0,0,1-.35.37,4.93,4.93,0,0,1-.49.42,2,2,0,0,1-.3.23,2.11,2.11,0,0,1-.27.18,2.85,2.85,0,0,1-.37.23l-.23.12-.42.2c-.18.07-.35.14-.54.2l-.28.09-.58.14c-.21,0-.42.07-.64.09A5.53,5.53,0,0,1,16,19V5A7,7,0,0,1,23,12Z" class="colord7e2f2 svgShape"></path><path fill="#85e09d" d="M21.44,15.5a6,6,0,0,0-10.88,0,1,1,0,0,0,.15,1.08,7,7,0,0,0,10.58,0A1,1,0,0,0,21.44,15.5Z" class="color91e085 svgShape"></path><path fill="#34a853" d="M21.32,16.54l0,0a.57.57,0,0,1-.11.11c-.11.13-.23.25-.35.37a4.93,4.93,0,0,1-.49.42,2,2,0,0,1-.3.23,2.11,2.11,0,0,1-.27.18,2.85,2.85,0,0,1-.37.23l-.23.12-.42.2c-.18.07-.35.14-.54.2l-.28.09-.58.14c-.21,0-.42.07-.64.09A5.53,5.53,0,0,1,16,19V12a5.88,5.88,0,0,1,2.55.58,6,6,0,0,1,2.89,2.92A1,1,0,0,1,21.32,16.54Z" class="color84bf6f svgShape"></path><circle cx="16" cy="11" r="3" fill="#ffd761" class="colorffc661 svgShape"></circle><path fill="#fbbc05" d="M19,11a3.06,3.06,0,0,1-.45,1.58A3,3,0,0,1,16,14V8A3,3,0,0,1,19,11Z" class="colore49f4e svgShape"></path></svg>